<mxfile host="app.diagrams.net" modified="2023-10-22T15:44:48.255Z" agent="Mozilla/5.0 (Macintosh; Intel Mac OS X 10_15_7) AppleWebKit/537.36 (KHTML, like Gecko) Chrome/118.0.0.0 Safari/537.36" etag="HXmp-s73H_jCDWhHyep2" version="21.6.8" type="device">
  <diagram name="Page-1" id="BVclxyCsy7wXZQkVFqli">
    <mxGraphModel dx="1035" dy="1750" grid="1" gridSize="10" guides="1" tooltips="1" connect="1" arrows="1" fold="1" page="1" pageScale="1" pageWidth="850" pageHeight="1100" math="0" shadow="0">
      <root>
        <mxCell id="0" />
        <mxCell id="1" parent="0" />
        <mxCell id="GwrJ8KwgX5OECvBA2uYM-14" value="" style="rounded=0;whiteSpace=wrap;html=1;" vertex="1" parent="1">
          <mxGeometry x="352.5" y="300" width="240" height="130" as="geometry" />
        </mxCell>
        <mxCell id="GwrJ8KwgX5OECvBA2uYM-22" value="" style="rounded=0;whiteSpace=wrap;html=1;" vertex="1" parent="1">
          <mxGeometry x="70" y="250" width="220" height="180" as="geometry" />
        </mxCell>
        <mxCell id="GwrJ8KwgX5OECvBA2uYM-20" value="" style="rounded=0;whiteSpace=wrap;html=1;" vertex="1" parent="1">
          <mxGeometry x="10" y="-120" width="370" height="300" as="geometry" />
        </mxCell>
        <mxCell id="GwrJ8KwgX5OECvBA2uYM-16" style="edgeStyle=orthogonalEdgeStyle;rounded=0;orthogonalLoop=1;jettySize=auto;html=1;startArrow=classic;startFill=1;" edge="1" parent="1" source="GwrJ8KwgX5OECvBA2uYM-1" target="GwrJ8KwgX5OECvBA2uYM-13">
          <mxGeometry relative="1" as="geometry" />
        </mxCell>
        <mxCell id="GwrJ8KwgX5OECvBA2uYM-1" value="FastAPI" style="rounded=0;whiteSpace=wrap;html=1;" vertex="1" parent="1">
          <mxGeometry x="320" y="355" width="110" height="30" as="geometry" />
        </mxCell>
        <mxCell id="GwrJ8KwgX5OECvBA2uYM-9" style="edgeStyle=elbowEdgeStyle;rounded=0;orthogonalLoop=1;jettySize=auto;html=1;entryX=0;entryY=0.5;entryDx=0;entryDy=0;startArrow=classic;startFill=1;" edge="1" parent="1" source="GwrJ8KwgX5OECvBA2uYM-2" target="GwrJ8KwgX5OECvBA2uYM-1">
          <mxGeometry relative="1" as="geometry" />
        </mxCell>
        <mxCell id="GwrJ8KwgX5OECvBA2uYM-2" value="&lt;b&gt;HuggingFace Inference on AWS&lt;br&gt;&lt;/b&gt;w/ A10G GPU" style="rounded=0;whiteSpace=wrap;html=1;" vertex="1" parent="1">
          <mxGeometry x="120" y="340" width="120" height="60" as="geometry" />
        </mxCell>
        <mxCell id="GwrJ8KwgX5OECvBA2uYM-6" style="edgeStyle=orthogonalEdgeStyle;rounded=0;orthogonalLoop=1;jettySize=auto;html=1;" edge="1" parent="1" source="GwrJ8KwgX5OECvBA2uYM-3" target="GwrJ8KwgX5OECvBA2uYM-4">
          <mxGeometry relative="1" as="geometry" />
        </mxCell>
        <mxCell id="GwrJ8KwgX5OECvBA2uYM-3" value="&lt;b&gt;&amp;nbsp;Meta LLama-2-7B&lt;/b&gt;" style="rounded=0;whiteSpace=wrap;html=1;" vertex="1" parent="1">
          <mxGeometry x="50" y="-60" width="120" height="60" as="geometry" />
        </mxCell>
        <mxCell id="GwrJ8KwgX5OECvBA2uYM-8" style="edgeStyle=orthogonalEdgeStyle;rounded=0;orthogonalLoop=1;jettySize=auto;html=1;" edge="1" parent="1" source="GwrJ8KwgX5OECvBA2uYM-4" target="GwrJ8KwgX5OECvBA2uYM-2">
          <mxGeometry relative="1" as="geometry" />
        </mxCell>
        <mxCell id="GwrJ8KwgX5OECvBA2uYM-4" value="&lt;b&gt;Google Colab&lt;/b&gt;&amp;nbsp;&lt;br&gt;&lt;b style=&quot;border-color: var(--border-color);&quot;&gt;Finetuning Notebook&lt;/b&gt;&lt;br style=&quot;border-color: var(--border-color);&quot;&gt;w/ A100 GPU" style="rounded=0;whiteSpace=wrap;html=1;" vertex="1" parent="1">
          <mxGeometry x="90" y="100" width="180" height="60" as="geometry" />
        </mxCell>
        <mxCell id="GwrJ8KwgX5OECvBA2uYM-7" style="edgeStyle=orthogonalEdgeStyle;rounded=0;orthogonalLoop=1;jettySize=auto;html=1;" edge="1" parent="1" source="GwrJ8KwgX5OECvBA2uYM-5" target="GwrJ8KwgX5OECvBA2uYM-4">
          <mxGeometry relative="1" as="geometry" />
        </mxCell>
        <mxCell id="GwrJ8KwgX5OECvBA2uYM-5" value="&lt;b&gt;Custom personal finance dataset for finetuning&lt;/b&gt;" style="rounded=0;whiteSpace=wrap;html=1;" vertex="1" parent="1">
          <mxGeometry x="180" y="-60" width="150" height="60" as="geometry" />
        </mxCell>
        <mxCell id="GwrJ8KwgX5OECvBA2uYM-13" value="Flutter Web App" style="rounded=0;whiteSpace=wrap;html=1;" vertex="1" parent="1">
          <mxGeometry x="302.5" y="490" width="145" height="60" as="geometry" />
        </mxCell>
        <mxCell id="GwrJ8KwgX5OECvBA2uYM-15" value="&lt;b&gt;Digital Ocean Server&lt;/b&gt;" style="rounded=0;whiteSpace=wrap;html=1;" vertex="1" parent="1">
          <mxGeometry x="352.5" y="300" width="150" height="30" as="geometry" />
        </mxCell>
        <mxCell id="GwrJ8KwgX5OECvBA2uYM-21" value="&lt;b&gt;Custom LLM Training by fine-tuning Architecture&amp;nbsp;&lt;/b&gt;" style="text;html=1;strokeColor=none;fillColor=none;align=center;verticalAlign=middle;whiteSpace=wrap;rounded=0;" vertex="1" parent="1">
          <mxGeometry x="10" y="-110" width="250" height="30" as="geometry" />
        </mxCell>
        <mxCell id="GwrJ8KwgX5OECvBA2uYM-23" value="&lt;b&gt;LLM hosted on AWS &amp;amp; HuggingFace&lt;/b&gt;" style="text;html=1;strokeColor=none;fillColor=none;align=center;verticalAlign=middle;whiteSpace=wrap;rounded=0;" vertex="1" parent="1">
          <mxGeometry x="70" y="260" width="100" height="50" as="geometry" />
        </mxCell>
      </root>
    </mxGraphModel>
  </diagram>
</mxfile>
